<svg width="53" height="51" viewBox="0 0 53 51" fill="none" xmlns="http://www.w3.org/2000/svg">
<path d="M23.9999 26.6666C29.891 26.6666 34.6666 21.891 34.6666 15.9999C34.6666 10.1089 29.891 5.33325 23.9999 5.33325C18.1089 5.33325 13.3333 10.1089 13.3333 15.9999C13.3333 21.891 18.1089 26.6666 23.9999 26.6666Z" fill="#F0B90B"/>
<path d="M20.0219 15.9999L18.3899 17.6432L16.7466 15.9999L18.3899 14.3566L20.0219 15.9999ZM23.9999 12.0219L26.8106 14.8326L28.4539 13.1892L25.6432 10.3899L23.9999 8.74658L22.3566 10.3899L19.5572 13.1892L21.2006 14.8326L23.9999 12.0219ZM29.6099 14.3566L27.9779 15.9999L29.6212 17.6432L31.2532 15.9999L29.6099 14.3566ZM23.9999 19.9779L21.1892 17.1672L19.5572 18.8106L22.3679 21.6212L23.9999 23.2532L25.6432 21.6099L28.4539 18.7992L26.8106 17.1672L23.9999 19.9779ZM23.9999 17.6432L25.6432 15.9999L23.9999 14.3566L22.3566 15.9999L23.9999 17.6432Z" fill="white"/>
<g clip-path="url(#clip0_1_13478)">
<path fill-rule="evenodd" clip-rule="evenodd" d="M34.9185 50.1104C29.5566 50.1064 25.2374 48.8327 22.2196 46.5451C19.1656 44.23 17.5454 40.9445 17.5454 37.2269C17.5454 33.6449 19.162 31.062 20.9912 29.3161C22.4247 27.9479 24.0066 27.0716 25.108 26.5675C24.859 25.8108 24.5482 24.8201 24.2702 23.7969C23.8981 22.4278 23.5331 20.8213 23.5331 19.6442C23.5331 18.2508 23.84 16.8515 24.6675 15.7642C25.5417 14.6154 26.8578 14 28.4411 14C29.6785 14 30.7291 14.4544 31.5516 15.2382C32.3378 15.9874 32.861 16.9824 33.2223 18.0197C33.8571 19.8423 34.1043 22.1321 34.1736 24.4172H35.6901C35.7596 22.1321 36.0067 19.8423 36.6416 18.0197C37.0029 16.9824 37.5261 15.9874 38.3123 15.2382C39.1347 14.4544 40.1852 14 41.4227 14C43.006 14 44.3221 14.6154 45.1963 15.7642C46.0238 16.8515 46.3307 18.2508 46.3307 19.6442C46.3307 20.8213 45.9658 22.4278 45.5936 23.7969C45.3156 24.8201 45.0049 25.8108 44.7558 26.5675C45.8572 27.0716 47.4392 27.9479 48.8727 29.3161C50.7018 31.062 52.3185 33.6449 52.3185 37.2269C52.3185 40.9445 50.6983 44.23 47.6443 46.5451C44.6263 48.8327 40.3072 50.1064 34.9453 50.1104H34.9185Z" fill="#633001"/>
<path d="M28.4411 15.3252C26.1221 15.3252 25.0546 17.0553 25.0546 19.4479C25.0546 21.3497 26.2949 25.1585 26.8039 26.6412C26.9183 26.9747 26.7385 27.3401 26.4104 27.4694C24.5518 28.2022 19.0669 30.8855 19.0669 37.0308C19.0669 43.504 24.6408 48.385 34.9197 48.3928C34.9237 48.3928 34.9278 48.3926 34.9319 48.3926C34.936 48.3926 34.9401 48.3928 34.9442 48.3928C45.2231 48.385 50.7969 43.504 50.7969 37.0308C50.7969 30.8855 45.312 28.2022 43.4535 27.4694C43.1255 27.3401 42.9455 26.9747 43.06 26.6412C43.5689 25.1585 44.8093 21.3497 44.8093 19.4479C44.8093 17.0553 43.7418 15.3252 41.4227 15.3252C38.0845 15.3252 37.2526 20.0538 37.1931 25.1287C37.1891 25.4675 36.9153 25.7424 36.5764 25.7424H33.2874C32.9486 25.7424 32.6747 25.4675 32.6707 25.1287C32.6114 20.0538 31.7793 15.3252 28.4411 15.3252Z" fill="#D1884F"/>
<path d="M34.9442 46.3192C27.3918 46.3192 19.0799 42.2765 19.0669 37.0432C19.0669 37.0512 19.0669 37.0594 19.0669 37.0676C19.0669 43.5461 24.6497 48.4296 34.9442 48.4296C45.2387 48.4296 50.8215 43.5461 50.8215 37.0676C50.8215 37.0594 50.8215 37.0512 50.8215 37.0432C50.8084 42.2765 42.4965 46.3192 34.9442 46.3192Z" fill="#FEDC90"/>
<path d="M30.7479 35.4356C30.7479 37.2025 29.9129 38.1227 28.8829 38.1227C27.8528 38.1227 27.0178 37.2025 27.0178 35.4356C27.0178 33.6687 27.8528 32.7485 28.8829 32.7485C29.9129 32.7485 30.7479 33.6687 30.7479 35.4356Z" fill="#633001"/>
<path d="M42.8706 35.4356C42.8706 37.2025 42.0357 38.1227 41.0057 38.1227C39.9755 38.1227 39.1406 37.2025 39.1406 35.4356C39.1406 33.6687 39.9755 32.7485 41.0057 32.7485C42.0357 32.7485 42.8706 33.6687 42.8706 35.4356Z" fill="#633001"/>
</g>
<defs>
<clipPath id="clip0_1_13478">
<rect width="36" height="36.1818" fill="white" transform="translate(17 14)"/>
</clipPath>
</defs>
</svg>
